<svg width="194" height="56" viewBox="0 0 194 56" fill="none" xmlns="http://www.w3.org/2000/svg">
<path d="M0 0V56H56V0H0Z" fill="#CFCFD0"/>
<path fill-rule="evenodd" clip-rule="evenodd" d="M35.1705 28L56 0H52.9222L32 28H35.1711" fill="white"/>
<path fill-rule="evenodd" clip-rule="evenodd" d="M43.185 40.0158C43.8772 41.847 44.4445 43.764 45.1085 45.6165C45.5399 46.7563 46.2148 49.0798 47 50H41.6781C41.6832 48.5553 41.0826 47.2274 40.6839 45.8599C40.3385 44.9081 40.0872 43.9338 39.7218 42.968L39.6257 42.6028L39.5296 42.2986L39.4334 42.0551L39.3693 41.8117L39.3052 41.6596L39.2732 41.5683V41.5379H30.8092L29.4626 43.3337L29.4946 43.3642L29.5267 43.5163L29.6228 43.7597L29.719 44.064L29.8472 44.4292C30.1016 45.1552 30.3292 45.9049 30.5843 46.6206C31.1387 48.3051 31.1457 48.3976 32.0912 49.9994H26.9936C26.8846 48.9782 26.668 48.3575 26.3526 47.3813C25.5072 48.2412 24.904 48.9149 24.397 49.9994H20.4218C20.2128 48.8833 20.1205 48.3605 19.6847 47.2596C18.8046 48.4013 18.4546 48.649 17.7932 49.9994H13.85C15.5959 48.4853 17.0189 46.5427 18.4668 44.7639L17.4727 41.5372H9.07285V41.5677L8.88056 41.7502L8.75237 41.9328L8.59213 42.1458L8.39984 42.3892L8.1755 42.6935L7.91912 42.9674C7.19803 43.9301 6.39426 44.8351 5.6751 45.7984C4.59507 47.1397 3.32212 48.5072 2.50104 49.9994H0V48.4774L0.0961447 48.3861H0.128193V48.3556L0.256386 48.2339L0.320482 48.1427C0.544179 47.9236 0.69801 47.6528 0.929398 47.4428C1.52934 46.7423 2.11134 46.0279 2.69269 45.3122C4.34894 43.324 5.9661 41.3151 7.56594 39.2849C9.7824 36.3364 12.8584 33.2954 14.3627 30.0006H18.6905C18.7822 32.1799 19.4469 33.3021 20.0372 35.3578C20.4083 36.4727 20.7557 37.5937 21.1275 38.7062L21.2557 39.0713L21.448 39.7408L21.5441 39.9842L21.6082 40.2276L21.6723 40.4102L21.7364 40.5623L21.7684 40.6536V40.684L23.2433 38.9186C22.4049 36.9139 21.4633 32.6187 19.9731 30H25.0386C24.9854 31.0753 25.4283 31.8464 25.6796 32.8615C25.9796 33.7902 26.2033 34.7426 26.5129 35.6621C27.1622 34.8418 27.8768 34.0232 28.5325 33.1968C29.2754 32.1927 30.4804 31.3078 30.5843 30.0006H34.8159C32.3405 32.1915 29.9657 35.597 27.7627 38.128C28.0082 38.8516 28.1979 39.5971 28.4357 40.3195C29.7927 38.6587 31.1489 36.9882 32.4751 35.297C33.7199 33.6581 35.4216 31.8543 36.2581 30.0006H40.3936V30.1832L40.4256 30.6396L40.5218 31.1265L40.5859 31.4916L43.1831 40.0146L43.185 40.0158ZM36.901 33.8364C35.8229 35.6706 34.1083 37.5164 32.7334 39.1936H38.3758C38.1015 38.3423 37.7964 37.4617 37.5099 36.606L37.3817 36.18L37.2535 35.8149L37.1574 35.5106L37.0933 35.2672L36.9971 34.6586V33.8675L36.9651 33.8066V33.7762L36.901 33.837V33.8364ZM15.2287 33.8364C14.6435 34.832 13.8025 35.9025 13.0488 36.7892C12.643 37.3205 12.1841 37.8183 11.7662 38.3416L11.5739 38.5851L11.4137 38.7981L11.2534 38.9502L11.1573 39.0719L11.0611 39.1632V39.1936H16.7035C16.4029 38.3666 16.1171 37.4471 15.8382 36.606L15.71 36.18L15.5818 35.8149L15.4857 35.5106L15.4216 35.2672L15.3255 34.6586L15.2934 34.1413V33.8066L15.2614 33.7762L15.2293 33.837L15.2287 33.8364ZM23.7247 46.3474L25.2636 44.3081C24.8861 43.4311 24.572 42.5316 24.2695 41.6291L22.7626 43.4859L23.7247 46.3474Z" fill="white"/>
<path fill-rule="evenodd" clip-rule="evenodd" d="M68.994 32.5665L68.4066 29.972C69.1981 30.0269 69.2729 30.1673 70.1687 29.8958C70.85 29.6014 71.1877 29.1651 71.1231 28.3705C71.2186 26.6957 69.0865 27.135 68.1115 27.2265C67.8574 30.7591 67.7679 34.1254 67.8178 37.6793H64C64.301 33.288 64.5007 28.7335 64.5139 24.3285H72.079L72.7398 24.481L73.2537 24.7098L73.6942 25.0149L74.0613 25.3962C74.8352 26.3754 74.7999 26.6149 75.0158 27.7619C75.1949 31.4882 72.1701 33.076 68.9925 32.568L68.994 32.5665ZM82.2887 27.0725H80.6734C80.4414 30.6004 80.3166 34.1376 80.3064 37.6777H76.3403C76.7338 33.2102 76.9673 28.7396 76.9276 24.2507H83.7585L83.9788 24.327H84.5661L84.9332 24.4032C85.7878 24.5619 86.7129 24.7281 87.3575 25.3947C89.3927 27.4019 88.2253 31.0138 85.3752 31.7276C86.0771 33.8173 86.9978 35.6689 87.8729 37.6777H83.6131C82.8804 35.0893 81.9979 32.719 81.1154 30.2008C82.1888 30.3518 83.7027 30.3762 84.2739 29.2094C84.9978 27.5026 83.644 27.0343 82.2916 27.0725H82.2887ZM97.6376 24.0982C107.859 23.7733 107.457 38.2924 97.1971 37.9065C86.6116 38.1734 87.4133 23.5964 97.6376 24.0982ZM97.4908 26.9962C92.7626 26.9306 92.1518 34.8468 97.2705 35.007C101.985 35.071 102.427 26.9367 97.4908 26.9962ZM105.865 24.327H117.837L117.763 27.3028C116.53 27.1945 115.063 27.1884 113.797 27.1503C113.508 30.5425 113.385 34.2657 113.357 37.6793H109.17C109.595 34.1894 109.686 30.6614 109.758 27.1503H108.73L107.775 27.2265H106.747L105.72 27.3028L105.866 24.327H105.865ZM119.158 24.327H129.662L129.515 27.3028L128.34 27.2265H127.165L125.991 27.1503H123.199L123.052 29.516H127.386L128.413 29.4397L128.267 32.4155H122.832L122.685 34.7812C124.845 34.7843 126.992 34.8148 129.149 34.6287L129.002 37.6808H118.499C118.997 33.3078 119.21 28.735 119.16 24.33L119.158 24.327ZM142.588 34.4731L142.074 37.6015C126.986 41.0455 127.883 20.9378 142.734 24.4032L142.808 27.4553C133.184 24.2415 132.341 37.9065 142.588 34.4746V34.4731ZM143.689 24.327H155.661L155.587 27.3028C154.292 27.1853 152.931 27.1945 151.621 27.1503C151.332 30.5425 151.208 34.2657 151.181 37.6793H147.068C147.292 34.1726 147.608 30.666 147.582 27.1503H146.627L145.599 27.2265H144.571L143.544 27.3028L143.69 24.327H143.689ZM160.581 37.6777H156.321C156.658 33.2865 156.935 28.7274 156.909 24.327H161.095C160.778 28.732 160.571 33.2575 160.581 37.6777ZM170.864 24.0982C181.106 23.7733 180.694 38.2162 170.497 37.9065C159.934 38.2528 160.622 23.6177 170.864 24.0982ZM170.791 26.9962C165.872 26.9199 165.508 34.9536 170.571 35.007C175.246 35.0192 175.707 27.0069 170.791 26.9962ZM185.407 24.327L189.96 32.9478C190.195 30.1535 190.244 27.1503 190.328 24.327H194C193.661 28.7808 193.43 33.2071 193.266 37.6777H188.566C187.115 34.7965 185.391 32.0861 183.939 29.2094C183.78 31.9732 183.649 34.9063 183.645 37.6777H179.899C180.357 33.3764 180.55 28.6572 180.56 24.327H185.407Z" fill="#CFCFD0"/>
<path fill-rule="evenodd" clip-rule="evenodd" d="M68.5509 45.5769L68.4775 47.8519H73.3953L73.2485 50.6403H72.4413L71.6342 50.567H68.3307L68.184 55.7023H64C64.4021 51.494 64.5958 47.095 64.587 42.8632H74.5708L74.424 45.6517L73.3233 45.5783H68.5509V45.5769ZM80.8827 55.7009H76.6987C77.0186 51.4266 77.2138 47.1449 77.2857 42.8618H81.4697C81.0324 47.1288 80.9825 51.4163 80.8827 55.7009ZM89.6909 42.8618L94.2418 51.1523H94.3152C94.4179 48.4137 94.5852 45.6047 94.6087 42.8618H98.279C97.9562 47.1288 97.7434 51.4236 97.5453 55.7009H92.8476C91.3581 52.9124 89.6983 50.278 88.2234 47.4837C88.1133 50.2208 87.9401 52.9565 87.9299 55.7009H84.2595C84.6308 51.3488 84.7893 47.2212 84.9199 42.8618H89.6909ZM109.879 51.959H105.181L103.42 55.7009H99.0158C101.417 51.5366 103.599 47.1288 105.843 42.8618H110.687C112.124 47.1449 113.748 51.4867 115.385 55.7009H111.127C110.741 54.3411 110.344 53.2762 109.88 51.959H109.879ZM106.282 49.3187H109.218L108.044 45.5769L106.283 49.3187H106.282ZM122.21 42.8618L126.761 51.1523C127.008 48.487 127.075 45.5549 127.128 42.8618H130.798C130.48 47.1258 130.192 51.4207 130.065 55.7009H125.367C123.986 52.9799 122.138 50.215 120.743 47.4837C120.589 50.1695 120.452 53.0078 120.449 55.7009H116.706C117.174 51.6466 117.381 46.9439 117.366 42.8618H122.21ZM144.671 52.6191L144.158 55.6275C128.999 58.8839 129.938 39.626 144.745 42.9351L144.891 45.8702C135.498 42.7166 134.137 55.8256 144.671 52.6206V52.6191ZM151.498 55.7009H147.314C147.554 51.4251 147.901 47.1493 147.828 42.8618H152.012C151.696 47.2036 151.534 51.3473 151.498 55.7009ZM162.656 42.2017H159.646L157.738 40H161.629L162.656 42.2017ZM155.462 42.8618H165.96L165.813 45.7235L163.463 45.5769H159.426L159.353 47.8519H163.683L164.711 47.7786L164.564 50.567H159.132L158.986 52.9154C161.175 52.9213 163.333 52.9403 165.519 52.7687L165.299 55.7038H154.802C155.299 51.5043 155.511 47.095 155.462 42.8647V42.8618ZM174.548 45.5035H172.86C172.747 48.9022 172.511 52.2949 172.566 55.7023H168.529C169.096 51.3914 169.091 47.117 169.19 42.7899H176.163L176.457 42.8632H177.191L177.558 42.9366L178.438 43.2299L178.805 43.3766L179.245 43.5967L179.612 43.89C181.529 45.8189 180.578 49.2161 177.556 49.9803C178.343 51.9077 179.294 53.7647 180.052 55.7023H175.795C175.265 53.2821 174.115 50.8061 173.299 48.4386C177.04 49.3686 178.17 45.2527 174.546 45.5035H174.548ZM183.503 42.8618H194L193.853 45.7235L192.679 45.6502L191.505 45.5769H187.468L187.395 47.8519H191.725L192.753 47.7786L192.606 50.567H187.174L187.028 52.9154C189.217 52.9213 191.375 52.9403 193.561 52.7687L193.341 55.7038H182.844C183.357 51.607 183.539 46.9997 183.504 42.8647" fill="#CFCFD0"/>
</svg>
