<svg width="41" height="39" viewBox="0 0 41 39" fill="none" xmlns="http://www.w3.org/2000/svg">
<path d="M21.4443 22.0964C22.8897 34.1578 29.9852 38.4231 29.9852 38.4231C29.9852 38.4231 30.4845 30.1049 21.4443 22.0964Z" fill="#E50038"/>
<path d="M22.355 21.2911C29.2052 31.273 37.457 31.7066 37.457 31.7066C37.457 31.7066 34.0582 24.1052 22.355 21.2911Z" fill="#E50038"/>
<path d="M22.793 20.1319C33.4713 25.7334 40.961 22.238 40.961 22.238C40.961 22.238 34.4436 17.1055 22.793 20.1319Z" fill="#E50038"/>
<path d="M22.6528 18.9019C34.6801 18.8222 39.6908 12.1853 39.6908 12.1853C39.6908 12.1853 31.5616 10.7429 22.6528 18.9019Z" fill="#E50038"/>
<path d="M21.2866 18.5656C31.8948 12.8225 33.2526 4.60158 33.2526 4.60158C33.2526 4.60158 25.395 7.14129 21.2866 18.5656Z" fill="#E50038"/>
<path d="M20.2004 17.9992C26.928 7.92002 24.3351 0 24.3351 0C24.3351 0 18.5536 5.9555 20.2004 17.9992Z" fill="#E50038"/>
<path d="M18.9829 18.0081C20.2706 5.9201 14.3138 0.141586 14.3138 0.141586C14.3138 0.141586 11.9662 8.1324 18.9829 18.0081Z" fill="#E50038"/>
<path d="M17.905 18.5833C13.455 7.29172 5.51855 4.99094 5.51855 4.99094C5.51855 4.99094 7.13913 13.1676 17.905 18.5833Z" fill="#E3007F"/>
<path d="M17.2219 19.6098C8.07661 11.7163 0 13.4154 0 13.4154C0 13.4154 5.19461 19.893 17.2219 19.6098Z" fill="#F29600"/>
</svg>
