<svg width="114" height="43" viewBox="0 0 114 43" fill="none" xmlns="http://www.w3.org/2000/svg">
<path d="M94.4844 22.0962C95.9298 34.1576 103.025 38.4229 103.025 38.4229C103.025 38.4229 103.525 30.1047 94.4844 22.0962Z" fill="#E50038"/>
<path d="M95.395 21.291C102.245 31.2729 110.497 31.7065 110.497 31.7065C110.497 31.7065 107.098 24.1051 95.395 21.291Z" fill="#E50038"/>
<path d="M95.833 20.132C106.511 25.7335 114.001 22.2381 114.001 22.2381C114.001 22.2381 107.484 17.1055 95.833 20.132Z" fill="#E50038"/>
<path d="M95.6929 18.9019C107.72 18.8222 112.731 12.1853 112.731 12.1853C112.731 12.1853 104.602 10.7429 95.6929 18.9019Z" fill="#E50038"/>
<path d="M94.3267 18.5656C104.935 12.8225 106.293 4.60156 106.293 4.60156C106.293 4.60156 98.435 7.14128 94.3267 18.5656Z" fill="#E50038"/>
<path d="M93.2405 17.9992C99.9681 7.92002 97.3751 0 97.3751 0C97.3751 0 91.5936 5.9555 93.2405 17.9992Z" fill="#E50038"/>
<path d="M92.0229 18.0081C93.3106 5.92012 87.3539 0.141602 87.3539 0.141602C87.3539 0.141602 85.0062 8.13241 92.0229 18.0081Z" fill="#E50038"/>
<path d="M90.9451 18.5831C86.495 7.29151 78.5586 4.99072 78.5586 4.99072C78.5586 4.99072 80.1792 13.1674 90.9451 18.5831Z" fill="#E3007F"/>
<path d="M90.262 19.61C81.1167 11.7166 73.04 13.4156 73.04 13.4156C73.04 13.4156 78.2347 19.8932 90.262 19.61Z" fill="#F29600"/>
<path d="M47.2422 31.5121C47.2422 30.167 47.5225 28.9281 48.0919 27.7866C48.6613 26.6451 49.4847 25.6451 50.5797 24.7867C51.3944 24.1584 52.2616 23.6717 53.2077 23.3355C54.145 22.9992 55.091 22.8311 56.0459 22.8311C57.2635 22.8311 58.4373 23.0965 59.5673 23.6452C60.7061 24.185 61.696 24.9372 62.5457 25.9283C63.9298 27.5211 64.6305 29.3352 64.6305 31.3617C64.6305 32.3793 64.4466 33.3704 64.0787 34.3084C63.7195 35.2642 63.1939 36.1225 62.5019 36.9013C61.6522 37.8747 60.636 38.6268 59.4797 39.1578C58.3234 39.6887 57.1058 39.9542 55.8356 39.9542C54.583 39.9542 53.3829 39.6976 52.2441 39.1755C51.0965 38.6622 50.1154 37.9278 49.292 36.9809C48.635 36.2376 48.1357 35.3969 47.7853 34.45C47.4174 33.512 47.2422 32.5298 47.2422 31.5121ZM50.0891 31.6979C50.0891 34.0076 50.7111 35.9632 51.9638 37.5561C52.5244 38.264 53.1201 38.7861 53.742 39.1047C54.3727 39.4321 55.091 39.5914 55.9145 39.5914C56.7467 39.5914 57.4737 39.4321 58.0957 39.1136C58.7264 38.795 59.3221 38.2729 59.8914 37.5561C61.1441 35.9632 61.7661 33.9899 61.7661 31.6537C61.7661 30.3706 61.5909 29.1582 61.2492 28.0078C60.9076 26.8574 60.4258 25.884 59.7951 25.0876C59.287 24.4328 58.7264 23.9549 58.1132 23.654C57.4912 23.3532 56.7642 23.2027 55.9145 23.2027C55.0735 23.2027 54.3465 23.3532 53.742 23.6452C53.1288 23.9461 52.5594 24.4239 52.0426 25.0787C51.4206 25.8752 50.9389 26.8486 50.5972 27.9901C50.2643 29.1494 50.0891 30.3794 50.0891 31.6979Z" fill="white"/>
<path d="M73.364 23.2466V23.5298C72.8822 23.5563 72.4967 23.6182 72.1989 23.7244C71.901 23.8306 71.6383 23.9988 71.4017 24.2288C71.0689 24.5474 70.8674 24.9899 70.7973 25.5562C70.7447 25.981 70.7185 26.4677 70.7185 27.0163V35.8124C70.7185 36.4673 70.7535 36.9894 70.8236 37.3787C70.8937 37.7592 70.9988 38.069 71.1565 38.299C71.3755 38.6176 71.6558 38.8565 71.9974 39.007C72.339 39.1574 72.7946 39.2548 73.3727 39.2901V39.5645H65.3574V39.2901C65.848 39.2636 66.2334 39.2017 66.5312 39.0955C66.8291 38.9893 67.0919 38.8211 67.3196 38.5999C67.5912 38.3433 67.7664 38.0247 67.8627 37.6354C67.9503 37.246 68.0029 36.6354 68.0029 35.8213V27.0252C68.0029 26.2022 67.9591 25.6005 67.8627 25.2111C67.7664 24.8217 67.5912 24.5032 67.3196 24.2465C67.0919 24.0165 66.8291 23.8483 66.5312 23.7421C66.2334 23.6359 65.8392 23.574 65.3574 23.5475V23.2643H73.364V23.2466Z" fill="white"/>
<path d="M81.3881 23.574C80.8625 23.574 78.9441 23.6182 77.9191 24.0873C77.306 24.3704 76.7628 24.7598 76.3511 25.3704C75.9745 25.9279 75.6854 26.6889 75.4839 27.6446L75.1948 27.6181L75.4401 23.2466H90.3582L90.6034 27.6181L90.3144 27.6446C90.0866 26.5385 89.7275 25.6978 89.2457 25.1226C88.7639 24.5563 88.0631 24.1403 87.1433 23.9014C86.3637 23.689 85.9958 23.574 84.1387 23.574V35.7859C84.1387 36.6 84.1912 37.2017 84.2788 37.6C84.3752 37.9982 84.5504 38.3167 84.8132 38.5734C85.0497 38.8034 85.3125 38.9716 85.6103 39.0778C85.9082 39.184 86.2936 39.2459 86.7754 39.2724V39.5468H78.7601V39.2724C79.2419 39.2459 79.6273 39.184 79.9252 39.0778C80.223 38.9716 80.4858 38.8034 80.7223 38.5734C80.9763 38.3167 81.1515 37.9982 81.2567 37.6088C81.353 37.2194 81.3968 36.6088 81.3968 35.7947V23.574H81.3881Z" fill="white"/>
<path d="M12.2726 23.2466V23.5298C12.7281 23.5563 13.1048 23.6182 13.3851 23.7244C13.6654 23.8306 13.9282 23.9988 14.1472 24.2288C14.3925 24.4855 14.5677 24.804 14.6553 25.1934C14.7429 25.5828 14.7954 26.1934 14.7954 27.0075V35.6177L6.35091 24.9456C5.11577 23.459 3.75799 23.2731 3.44263 23.2466H0.00875988V23.5298C0.473033 23.5563 1.21762 23.6182 1.49794 23.7244C1.78702 23.8306 2.03229 23.9988 2.25129 24.2288C2.50533 24.4855 2.67176 24.8129 2.76812 25.2022C2.86448 25.5916 2.90828 26.1934 2.90828 26.9986V35.8036C2.90828 36.6088 2.86448 37.2106 2.76812 37.6088C2.68052 38.007 2.50533 38.3256 2.25129 38.5822C2.03229 38.8123 1.7695 38.9804 1.48918 39.0778C1.2001 39.184 0.464274 39.2459 0 39.2724V39.5468H5.9392V39.2724C5.48368 39.2459 5.10701 39.184 4.82669 39.0778C4.53762 38.9716 4.28358 38.8123 4.06458 38.5822C3.81931 38.3256 3.64411 38.007 3.55651 37.6177C3.46015 37.2283 3.41635 36.6177 3.41635 35.8036V25.4146L14.7604 39.5379H15.3035V26.9898C15.3035 26.1845 15.3473 25.5916 15.4437 25.1934C15.5313 24.7952 15.7065 24.4766 15.9517 24.22C16.3985 23.7598 17.0292 23.5298 17.8264 23.5298V23.2466H12.2726Z" fill="white"/>
<path d="M42.0651 23.2466V23.5298C42.5206 23.5563 42.8885 23.6182 43.1776 23.7244C43.4667 23.8306 43.7207 23.9988 43.9397 24.2288C44.185 24.4855 44.3602 24.804 44.4478 25.1934C44.5441 25.5828 44.5792 26.1934 44.5792 27.0075V35.6177L36.1434 24.9456C34.9083 23.459 33.5505 23.2731 33.2351 23.2466H29.8013V23.5298C30.2655 23.5563 31.0101 23.6182 31.2904 23.7244C31.5708 23.8306 31.8248 23.9988 32.0438 24.2288C32.2891 24.4855 32.4643 24.8129 32.5606 25.2022C32.6482 25.5916 32.7008 26.1934 32.7008 26.9986V38.0867C32.7796 38.4672 33.0249 38.7857 33.2176 39.0955V25.4146L44.5617 39.5379H45.1048V26.9898C45.1048 26.1845 45.1486 25.5916 45.2449 25.1934C45.3413 24.7952 45.5077 24.4766 45.753 24.22C46.1998 23.7598 46.8305 23.5298 47.6276 23.5298V23.2466H42.0651Z" fill="white"/>
<path d="M31.0539 36.2906C31.0277 36.2286 30.9926 36.1578 30.9576 36.0959C30.8788 35.9189 30.8262 35.8127 30.8262 35.8127C30.6948 35.5207 25.3775 21.9106 25.3775 21.9106H24.9133L20.3757 34.3083C19.9639 35.3703 19.6311 36.1578 19.377 36.6888C19.123 37.2109 18.8602 37.6445 18.5974 37.9808C18.282 38.3967 17.9579 38.7064 17.6251 38.8922C17.2922 39.0781 16.9067 39.1842 16.4688 39.2108V39.494H22.0576V39.2019C21.5495 39.1577 21.1378 39.025 20.8137 38.8037C20.5859 38.6356 20.3932 38.4232 20.2618 38.1577C20.1216 37.8923 20.0603 37.6091 20.0603 37.3082C20.0603 36.7861 20.2443 36.0693 20.6209 35.1667L20.9275 34.3968L21.6721 32.45L24.23 25.8485L26.9193 32.45L28.0143 34.8835C31.7197 45.069 41.5921 42.2903 41.5921 42.2903C34.1812 42.9009 32.4643 39.2904 31.0539 36.2906Z" fill="white"/>
<path d="M24.9043 21.875L30.6858 36.9098C33.6905 43.9803 41.6006 42.3078 41.6006 42.3078C34.181 42.9007 32.7006 39.2636 31.2902 36.2549C31.2552 36.193 25.6226 21.875 25.6226 21.875H24.9043Z" fill="#C8C9CA"/>
</svg>
