<svg width="266" height="44" viewBox="0 0 266 44" fill="none" xmlns="http://www.w3.org/2000/svg">
<path d="M60.4274 22.4313L59.893 22.0918C58.0802 20.2863 55.5597 19.4991 52.187 19.7013C49.3776 19.8746 47.1532 20.9868 45.4488 22.0196C45.4488 21.9907 45.4488 21.969 45.4488 21.9401C45.4488 21.059 45.5499 20.1057 45.6438 19.1813C45.7376 18.2424 45.846 17.2819 45.846 16.3791C45.846 15.4764 45.7449 14.5736 45.4199 13.8225C45.3404 13.6275 45.1599 13.5192 44.936 13.5192C44.026 13.5408 42.2566 14.1619 41.8233 14.5375L41.5921 15.0503C41.5777 16.0541 41.3538 18.8635 41.1299 19.203C41.1372 19.1885 41.0144 19.5424 41.0144 19.5424C40.6316 23.5507 40.6244 27.0678 40.9783 30.0939C41.0216 30.3972 41.5994 30.8522 42.0544 31.0183C42.5455 31.1989 44.091 30.7872 44.9793 30.455C44.9649 30.455 45.3115 30.4045 45.3115 30.4045C45.5932 30.3756 45.7593 30.1372 45.7449 29.8195L45.7665 28.9528C46.4093 26.3456 49.0093 23.2257 52.0787 22.7562C53.8192 22.4818 55.1914 22.9296 56.2747 24.1068C56.4192 24.3162 56.7369 26.2012 55.5958 28.3534C54.7436 29.9495 53.0392 31.3 50.7931 32.1378C48.6698 32.9466 46.3299 33.2716 43.4482 33.1705C43.3255 33.0911 40.7472 31.3433 40.7472 31.3433C38.4578 29.7328 35.6122 27.7323 33.0339 26.7573C32.5789 26.584 31.7701 25.9051 31.279 25.5079L31.0118 25.2912C29.524 24.0996 26.6929 22.2146 24.4252 20.6979C24.4252 20.6979 23.3996 20.0118 23.2046 19.8746C23.2046 19.788 23.2046 19.6146 23.2046 19.6146C23.2696 19.5424 24.6996 18.6902 24.6996 18.6902C26.7002 17.5202 27.6246 16.9497 27.8196 16.6536C27.7762 16.7041 28.0868 16.4947 28.0868 16.4947C28.1085 16.4875 33.0412 13.6925 33.0412 13.6925C37.8005 11.0781 43.1882 8.1098 46.0193 5.18485L46.1565 4.73708L46.2215 4.33986C46.4093 3.71154 46.4165 3.23488 46.2649 2.67877C46.2215 2.51989 46.0771 2.33211 45.8821 2.30322C43.6721 2.07934 40.8194 3.40821 38.2266 5.84206C37.6417 6.39094 37.1506 6.65816 36.6306 6.93982L36.2333 7.16371C33.3734 8.78868 26.9313 12.7897 23.5513 14.9491C23.7752 11.3236 24.4469 6.15983 25.2702 1.86268L25.1763 1.34991L24.8296 0.699915L24.5696 0.2377L24.4974 0.216034C23.8258 -0.123405 23.2769 0.0138147 22.8724 0.114924L22.2008 0.360476L21.298 0.685471C21.1175 0.721582 20.9947 0.829913 20.9297 1.00324C19.3192 4.89596 17.9758 11.302 17.6581 16.4225C14.437 14.3786 11.4615 12.9053 10.0026 12.1903L9.95929 12.1686L9.78596 12.1325C9.25875 12.0675 8.6232 11.6775 8.00932 11.302C7.94432 11.2659 6.78156 10.5075 6.78156 10.5075L4.91104 9.30867L4.41993 9.19312C3.61828 9.33034 2.07275 10.3703 1.61775 11.0781C1.55998 11.172 1.53109 11.2731 1.53109 11.3742C1.53109 11.5259 1.57442 11.6703 1.61775 11.822L1.6972 12.2047L1.78386 12.4358C2.6794 13.3531 4.94715 14.8841 7.16434 16.0758L9.73541 17.4408L13.6715 19.593L14.3431 20.1274L14.8053 20.3946C14.8053 20.3946 14.8559 20.4235 14.892 20.4452C13.8448 21.1457 7.72766 25.2262 7.72766 25.2262L3.96494 27.7251C3.61106 27.9706 2.1233 28.635 1.79108 28.765C0.974985 29.0973 0.353884 29.61 0.10111 30.1589L0 30.3756L0.10111 30.52L0.389994 30.7367L0.772766 30.9895L1.19165 31.2711L1.58164 31.3361C2.24608 31.3578 3.22106 30.9822 5.05548 30.1806C6.73823 29.4367 11.3098 26.6779 13.267 25.5006L14.0976 25.0023C14.4442 25.0312 14.8198 24.7423 15.1592 24.4823C15.5492 24.1718 16.4014 23.6446 16.9214 23.4135C16.9359 23.4135 17.232 23.2401 17.5136 23.0885C17.5136 23.1751 17.5136 23.3123 17.5136 23.3123C17.6003 29.2923 17.9397 33.64 18.5969 36.991V37.0488L18.6692 37.186C18.9869 37.6555 19.3553 39.0782 19.6803 40.3276L20.4241 42.8265L20.6336 43.0576C21.0597 43.3465 22.3524 43.8448 23.2191 43.7437L23.4358 43.7148L23.573 43.4115C23.6452 43.0359 23.6741 42.6676 23.6741 42.2632C23.6741 41.8082 23.638 41.3026 23.6019 40.6888L23.5441 39.786C23.2696 35.6116 22.9952 29.5811 22.9952 25.5729V25.2551C23.7102 25.6956 26.8085 27.6528 26.8085 27.6528C32.0878 31.0761 40.0683 36.2544 44.8854 37.6194C45.1382 37.6916 45.3982 37.6338 45.586 37.4605C45.586 37.4532 46.3299 36.9838 46.3299 36.9838L46.4671 36.926C46.7415 36.796 46.9293 36.3266 46.9582 35.821C51.0242 35.6188 56.6864 34.0516 59.7197 30.2384C60.8896 28.7578 61.4241 26.9523 61.4241 25.4068C61.4241 24.1357 61.0702 23.0379 60.4346 22.4385" fill="#CFCFD0"/>
<path d="M159.132 18.9577V23.6304H170.088V35.7852H166.347V26.8659H144.355V23.6304H155.398V18.9577H142.059V15.7294H166.173V9.2656H144.76V6.05176H169.922V15.7077H172.601V18.9577H159.132Z" fill="#CFCFD0"/>
<path d="M190.367 18.192H180.09V9.74214H190.367V18.192ZM194.087 6.49219H176.364V21.4564H194.087V6.49219Z" fill="#CFCFD0"/>
<path d="M203.252 35.6692H179.737V24.6699H183.485V32.4265H203.252V35.6692Z" fill="#CFCFD0"/>
<path d="M202.97 5.77637H199.244V25.4205H202.97V5.77637Z" fill="#CFCFD0"/>
<path d="M236.813 24.6629V21.4346H206.292V24.6629H209.593V35.6621H234.011V32.4338H213.319V24.6629H236.813Z" fill="#CFCFD0"/>
<path d="M221.553 16.3644C217.689 16.3644 214.569 15.0283 214.569 12.0383C214.569 9.04836 217.689 7.72671 221.553 7.72671C225.416 7.72671 228.536 9.08447 228.536 12.0383C228.536 14.9922 225.402 16.3644 221.553 16.3644ZM221.553 4.31787C215.529 4.31787 210.64 6.86728 210.64 12.0455C210.64 17.2238 215.529 19.7804 221.553 19.7804C227.576 19.7804 232.472 17.1949 232.472 12.0455C232.472 6.89616 227.583 4.31787 221.553 4.31787Z" fill="#CFCFD0"/>
<path d="M256.096 20.5023H259.722V14.6018H261.794V21.4556H265.427V5.77637H261.794V11.4891H259.722V5.77637H256.096V20.5023Z" fill="#CFCFD0"/>
<path d="M254.428 7.09906H247.827V4.47021H244.1V7.09906H237.448V10.2623H240.106C238.785 11.2734 237.968 12.7468 237.968 14.6967C237.968 18.7628 241.536 20.8139 245.934 20.8139C250.333 20.8139 253.9 18.7556 253.9 14.6967C253.9 12.7468 253.084 11.2734 251.763 10.2623H254.42V7.09906H254.428ZM245.942 17.3978C243.66 17.3978 241.818 16.4156 241.818 14.1984C241.818 11.9812 243.66 10.9846 245.942 10.9846C248.224 10.9846 250.058 11.9957 250.058 14.1984C250.058 16.4011 248.209 17.3978 245.942 17.3978Z" fill="#CFCFD0"/>
<path d="M254.76 33.6036C250.947 33.6036 247.856 32.2675 247.856 29.2631C247.856 26.2587 250.947 24.9299 254.76 24.9299C258.573 24.9299 261.664 26.2876 261.664 29.2631C261.664 32.2387 258.573 33.6036 254.76 33.6036ZM254.775 21.5933C248.823 21.5933 244.006 24.121 244.006 29.2776C244.006 34.4342 248.816 36.9547 254.775 36.9547C260.733 36.9547 265.535 34.3836 265.535 29.2776C265.535 24.1716 260.718 21.5933 254.775 21.5933Z" fill="#CFCFD0"/>
<path d="M107.602 6.10205H122.227C129.182 6.10205 132.822 8.41313 132.822 13.4614C132.822 17.0508 130.316 19.528 126.979 20.1996V20.3224C131.767 20.8929 134.028 24.0273 134.028 27.5734C134.028 32.0222 130.778 35.8572 122.689 35.8572H107.602V6.10205ZM112.347 18.6396H121.996C125.585 18.6396 128.229 17.2819 128.229 14.1114C128.229 11.3453 126.921 9.49644 121.447 9.49644H112.34V18.6396H112.347ZM112.347 32.4844H121.7C127.506 32.4844 129.045 30.2167 129.045 27.3351C129.045 23.919 126.683 22.0268 121.447 22.0268H112.34V32.4917L112.347 32.4844Z" fill="#CFCFD0"/>
<path d="M75.4205 6.10205H80.1727V19.4196L96.1624 6.10205H102.893L85.9937 19.5424L104.295 35.8644H97.5708L80.1727 19.918V35.8644H75.4205V6.10205Z" fill="#CFCFD0"/>
</svg>
