<svg width="146" height="55" viewBox="0 0 146 55" fill="none" xmlns="http://www.w3.org/2000/svg">
<rect width="146" height="55" fill="white"/>
<path d="M110.484 22.0964C111.93 34.1578 119.025 38.4232 119.025 38.4232C119.025 38.4232 119.525 30.1049 110.484 22.0964Z" fill="#E50038"/>
<path d="M111.395 21.2911C118.245 31.273 126.497 31.7066 126.497 31.7066C126.497 31.7066 123.098 24.1052 111.395 21.2911Z" fill="#E50038"/>
<path d="M111.833 20.1319C122.511 25.7334 130.001 22.238 130.001 22.238C130.001 22.238 123.484 17.1055 111.833 20.1319Z" fill="#E50038"/>
<path d="M111.693 18.9019C123.72 18.8222 128.731 12.1853 128.731 12.1853C128.731 12.1853 120.602 10.7429 111.693 18.9019Z" fill="#E50038"/>
<path d="M110.327 18.5656C120.935 12.8225 122.293 4.60158 122.293 4.60158C122.293 4.60158 114.435 7.14129 110.327 18.5656Z" fill="#E50038"/>
<path d="M109.24 17.9992C115.968 7.92002 113.375 0 113.375 0C113.375 0 107.594 5.9555 109.24 17.9992Z" fill="#E50038"/>
<path d="M108.023 18.0081C109.311 5.9201 103.354 0.141586 103.354 0.141586C103.354 0.141586 101.006 8.1324 108.023 18.0081Z" fill="#E50038"/>
<path d="M106.945 18.5833C102.495 7.29172 94.5586 4.99094 94.5586 4.99094C94.5586 4.99094 96.1792 13.1676 106.945 18.5833Z" fill="#E3007F"/>
<path d="M106.262 19.6098C97.1167 11.7163 89.04 13.4154 89.04 13.4154C89.04 13.4154 94.2347 19.893 106.262 19.6098Z" fill="#F29600"/>
<path d="M63.2422 31.5119C63.2422 30.1669 63.5225 28.928 64.0919 27.7864C64.6613 26.6449 65.4847 25.6449 66.5797 24.7866C67.3944 24.1583 68.2616 23.6716 69.2077 23.3353C70.145 22.999 71.091 22.8309 72.0459 22.8309C73.2635 22.8309 74.4373 23.0964 75.5673 23.645C76.7061 24.1848 77.696 24.937 78.5457 25.9281C79.9298 27.521 80.6305 29.335 80.6305 31.3615C80.6305 32.3792 80.4466 33.3703 80.0787 34.3083C79.7195 35.264 79.1939 36.1224 78.5019 36.9011C77.6522 37.8745 76.636 38.6267 75.4797 39.1576C74.3234 39.6886 73.1058 39.9541 71.8356 39.9541C70.583 39.9541 69.3829 39.6974 68.2441 39.1753C67.0965 38.6621 66.1154 37.9276 65.292 36.9807C64.635 36.2374 64.1357 35.3967 63.7853 34.4499C63.4174 33.5119 63.2422 32.5296 63.2422 31.5119ZM66.0891 31.6978C66.0891 34.0074 66.7111 35.9631 67.9638 37.5559C68.5244 38.2639 69.1201 38.786 69.742 39.1045C70.3727 39.432 71.091 39.5912 71.9145 39.5912C72.7467 39.5912 73.4737 39.432 74.0957 39.1134C74.7264 38.7948 75.3221 38.2727 75.8914 37.5559C77.1441 35.9631 77.7661 33.9897 77.7661 31.6535C77.7661 30.3704 77.5909 29.1581 77.2492 28.0077C76.9076 26.8573 76.4258 25.8839 75.7951 25.0874C75.287 24.4326 74.7264 23.9547 74.1132 23.6539C73.4912 23.353 72.7642 23.2026 71.9145 23.2026C71.0735 23.2026 70.3465 23.353 69.742 23.645C69.1288 23.9459 68.5594 24.4237 68.0426 25.0786C67.4206 25.875 66.9389 26.8484 66.5972 27.99C66.2643 29.1492 66.0891 30.3792 66.0891 31.6978Z" fill="#231815"/>
<path d="M89.364 23.2468V23.53C88.8822 23.5565 88.4967 23.6185 88.1989 23.7247C87.901 23.8308 87.6383 23.999 87.4017 24.2291C87.0689 24.5476 86.8674 24.9901 86.7973 25.5564C86.7447 25.9812 86.7185 26.4679 86.7185 27.0166V35.8126C86.7185 36.4675 86.7535 36.9896 86.8236 37.3789C86.8937 37.7595 86.9988 38.0692 87.1565 38.2993C87.3755 38.6178 87.6558 38.8568 87.9974 39.0072C88.339 39.1576 88.7946 39.255 89.3727 39.2904V39.5647H81.3574V39.2904C81.848 39.2638 82.2334 39.2019 82.5312 39.0957C82.8291 38.9895 83.0919 38.8214 83.3196 38.6001C83.5912 38.3435 83.7664 38.0249 83.8627 37.6356C83.9503 37.2462 84.0029 36.6356 84.0029 35.8215V27.0254C84.0029 26.2024 83.9591 25.6007 83.8627 25.2113C83.7664 24.822 83.5912 24.5034 83.3196 24.2468C83.0919 24.0167 82.8291 23.8485 82.5312 23.7424C82.2334 23.6362 81.8392 23.5742 81.3574 23.5477V23.2645H89.364V23.2468Z" fill="#231815"/>
<path d="M97.3881 23.5742C96.8625 23.5742 94.9441 23.6185 93.9191 24.0875C93.306 24.3706 92.7628 24.76 92.3511 25.3706C91.9745 25.9281 91.6854 26.6891 91.4839 27.6448L91.1948 27.6183L91.4401 23.2468H106.358L106.603 27.6183L106.314 27.6448C106.087 26.5387 105.727 25.698 105.246 25.1228C104.764 24.5565 104.063 24.1406 103.143 23.9016C102.364 23.6893 101.996 23.5742 100.139 23.5742V35.7861C100.139 36.6002 100.191 37.202 100.279 37.6002C100.375 37.9984 100.55 38.317 100.813 38.5736C101.05 38.8037 101.312 38.9718 101.61 39.078C101.908 39.1842 102.294 39.2461 102.775 39.2727V39.547H94.7601V39.2727C95.2419 39.2461 95.6273 39.1842 95.9252 39.078C96.223 38.9718 96.4858 38.8037 96.7223 38.5736C96.9763 38.317 97.1515 37.9984 97.2567 37.609C97.353 37.2197 97.3968 36.6091 97.3968 35.7949V23.5742H97.3881Z" fill="#231815"/>
<path d="M28.2726 23.2468V23.53C28.7281 23.5565 29.1048 23.6185 29.3851 23.7247C29.6654 23.8308 29.9282 23.999 30.1472 24.2291C30.3925 24.4857 30.5677 24.8043 30.6553 25.1936C30.7429 25.583 30.7954 26.1936 30.7954 27.0077V35.618L22.3509 24.9458C21.1158 23.4592 19.758 23.2734 19.4426 23.2468H16.0088V23.53C16.473 23.5565 17.2176 23.6185 17.4979 23.7247C17.787 23.8308 18.0323 23.999 18.2513 24.2291C18.5053 24.4857 18.6718 24.8131 18.7681 25.2025C18.8645 25.5918 18.9083 26.1936 18.9083 26.9989V35.8038C18.9083 36.6091 18.8645 37.2108 18.7681 37.609C18.6805 38.0072 18.5053 38.3258 18.2513 38.5824C18.0323 38.8125 17.7695 38.9806 17.4892 39.078C17.2001 39.1842 16.4643 39.2461 16 39.2727V39.547H21.9392V39.2727C21.4837 39.2461 21.107 39.1842 20.8267 39.078C20.5376 38.9718 20.2836 38.8125 20.0646 38.5824C19.8193 38.3258 19.6441 38.0072 19.5565 37.6179C19.4602 37.2285 19.4164 36.6179 19.4164 35.8038V25.4149L30.7604 39.5381H31.3035V26.99C31.3035 26.1847 31.3473 25.5918 31.4437 25.1936C31.5313 24.7954 31.7065 24.4768 31.9517 24.2202C32.3985 23.7601 33.0292 23.53 33.8264 23.53V23.2468H28.2726Z" fill="#231815"/>
<path d="M58.0651 23.2468V23.53C58.5206 23.5565 58.8885 23.6185 59.1776 23.7247C59.4667 23.8308 59.7207 23.999 59.9397 24.2291C60.185 24.4857 60.3602 24.8043 60.4478 25.1936C60.5441 25.583 60.5792 26.1936 60.5792 27.0077V35.618L52.1434 24.9458C50.9083 23.4592 49.5505 23.2734 49.2351 23.2468H45.8013V23.53C46.2655 23.5565 47.0101 23.6185 47.2904 23.7247C47.5708 23.8308 47.8248 23.999 48.0438 24.2291C48.2891 24.4857 48.4643 24.8131 48.5606 25.2025C48.6482 25.5918 48.7008 26.1936 48.7008 26.9989V38.0869C48.7796 38.4674 49.0249 38.786 49.2176 39.0957V25.4149L60.5617 39.5381H61.1048V26.99C61.1048 26.1847 61.1486 25.5918 61.2449 25.1936C61.3413 24.7954 61.5077 24.4768 61.753 24.2202C62.1998 23.7601 62.8305 23.53 63.6276 23.53V23.2468H58.0651Z" fill="#231815"/>
<path d="M47.0539 36.2905C47.0277 36.2286 46.9926 36.1578 46.9576 36.0958C46.8788 35.9188 46.8262 35.8126 46.8262 35.8126C46.6948 35.5206 41.3775 21.9106 41.3775 21.9106H40.9133L36.3757 34.3083C35.9639 35.3702 35.6311 36.1578 35.377 36.6887C35.123 37.2108 34.8602 37.6444 34.5974 37.9807C34.282 38.3966 33.9579 38.7063 33.6251 38.8922C33.2922 39.078 32.9067 39.1842 32.4688 39.2107V39.4939H38.0576V39.2019C37.5495 39.1576 37.1378 39.0249 36.8137 38.8037C36.5859 38.6355 36.3932 38.4232 36.2618 38.1577C36.1216 37.8922 36.0603 37.609 36.0603 37.3082C36.0603 36.7861 36.2443 36.0693 36.6209 35.1667L36.9275 34.3968L37.6721 32.45L40.23 25.8485L42.9193 32.45L44.0143 34.8835C47.7197 45.0689 57.5921 42.2902 57.5921 42.2902C50.1812 42.9008 48.4643 39.2904 47.0539 36.2905Z" fill="#231815"/>
<path d="M40.9043 21.8752L46.6858 36.9099C49.6905 43.9804 57.6006 42.3079 57.6006 42.3079C50.181 42.9008 48.7006 39.2638 47.2902 36.2551C47.2552 36.1932 41.6226 21.8752 41.6226 21.8752H40.9043Z" fill="#C8C9CA"/>
</svg>
