<svg width="258" height="36" viewBox="0 0 258 36" fill="none" xmlns="http://www.w3.org/2000/svg">
<path d="M231.914 13.383H227.384V6.82617H224.712V24.1383H234.603V6.82617H231.914V13.383ZM231.914 21.8157H227.384V15.7056H231.914V21.8157Z" fill="#CFCFD0"/>
<path d="M239.487 6.52246H236.815V28.855H239.487V6.52246Z" fill="#CFCFD0"/>
<path d="M257.997 23.4595H241.328V25.8714H257.997V23.4595Z" fill="#CFCFD0"/>
<path d="M249.609 13.6333C251.219 17.1886 255.838 19.136 255.838 19.136L257.165 17.0278C251.308 14.3301 251.219 9.3276 251.219 7.5946V7.14795H248.017V7.5946C248.017 9.3276 247.928 14.3301 242.053 17.0278L243.38 19.136C243.38 19.136 247.999 17.1708 249.592 13.6333H249.609Z" fill="#CFCFD0"/>
<path d="M219.208 6.52246V13.3115H216.412V15.652H219.208V28.855H221.969V6.52246H219.208Z" fill="#CFCFD0"/>
<path d="M214.147 17.2956C213.192 14.4192 213.316 10.8102 213.316 9.6668V6.95117H210.537V9.6668C210.537 10.8102 210.679 14.4013 209.723 17.2956C209.033 19.368 207.565 21.6192 205.512 23.1378L207.388 24.978C207.388 24.978 210.467 22.4946 211.935 18.4926C213.404 22.4946 216.483 24.978 216.483 24.978L218.359 23.1378C216.306 21.6192 214.837 19.368 214.165 17.2956H214.147Z" fill="#CFCFD0"/>
<path d="M198.274 14.6875H189.356V17.1173H198.274V14.6875Z" fill="#CFCFD0"/>
<path d="M198.274 7.18359H189.356V9.34538H198.274V7.18359Z" fill="#CFCFD0"/>
<path d="M198.274 7.91602H195.62V15.7056H198.274V7.91602Z" fill="#CFCFD0"/>
<path d="M197.301 14.6875H188.383V17.1173H197.301V14.6875Z" fill="#CFCFD0"/>
<path d="M197.301 7.18359H188.383V9.34538H197.301V7.18359Z" fill="#CFCFD0"/>
<path d="M191.037 7.91602H188.383V15.7056H191.037V7.91602Z" fill="#CFCFD0"/>
<path d="M201.106 6.54053V8.75591H198.912V11.0249H201.159V12.883H198.912V15.1519H201.159V18.2964H203.884V6.54053H201.106Z" fill="#CFCFD0"/>
<path d="M143.684 6.54053V18.2964H146.533V13.5797H148.957V11.1857H146.533V6.54053H143.684Z" fill="#CFCFD0"/>
<path d="M133.102 28.8551V19.2432H146.533V28.8551H133.102ZM143.79 26.5146V21.5836H135.845V26.5146H143.79Z" fill="#CFCFD0"/>
<path d="M165.892 6.54053V18.2964H163.078V13.5797H159.451V11.1857H163.043V6.54053H165.892Z" fill="#CFCFD0"/>
<path d="M158.867 29.4626C154.744 29.4626 151.417 27.0329 151.417 24.0314C151.417 21.0299 154.744 18.6001 158.867 18.6001C162.99 18.6001 166.317 21.0299 166.317 24.0314C166.317 27.0329 162.99 29.4626 158.867 29.4626ZM163.485 24.0314C163.485 22.352 161.415 20.9941 158.849 20.9941C156.283 20.9941 154.213 22.352 154.213 24.0314C154.213 25.7108 156.283 27.0686 158.849 27.0686C161.415 27.0686 163.485 25.7108 163.485 24.0314Z" fill="#CFCFD0"/>
<path d="M136.942 6.96924C136.942 6.96924 136.57 13.3295 141.667 15.9558L140.198 17.9926C140.198 17.9926 136.464 15.5092 135.615 12.7936C134.765 15.5092 131.032 17.9926 131.032 17.9926L129.563 15.9558C134.659 13.3117 134.288 6.96924 134.288 6.96924H136.924H136.942Z" fill="#CFCFD0"/>
<path d="M154.62 12.7936C153.77 15.5092 150.355 17.796 150.355 17.796L148.886 15.7414C153.664 13.3295 153.293 6.96924 153.293 6.96924H155.929C155.929 6.96924 155.558 13.3295 160.353 15.7414L158.884 17.796C158.884 17.796 155.469 15.5092 154.62 12.7936Z" fill="#CFCFD0"/>
<path d="M177.818 29.4626C173.713 29.4626 170.369 27.0329 170.369 24.0314C170.369 21.0299 173.713 18.6001 177.818 18.6001C181.924 18.6001 185.268 21.0299 185.268 24.0314C185.268 27.0329 181.941 29.4626 177.818 29.4626ZM182.455 24.0314C182.455 22.352 180.384 20.9941 177.818 20.9941C175.253 20.9941 173.2 22.352 173.2 24.0314C173.2 25.7108 175.27 27.0686 177.818 27.0686C180.367 27.0686 182.455 25.7108 182.455 24.0314Z" fill="#CFCFD0"/>
<path d="M184.897 6.54053V18.2964H182.296V13.5797H179.995V11.1857H182.242V6.54053H184.897Z" fill="#CFCFD0"/>
<path d="M179.093 6.54053V18.2964H181.605V13.5797H183.393V11.1857H181.641V6.54053H179.093Z" fill="#CFCFD0"/>
<path d="M172.882 12.7936C172.068 15.5092 168.794 17.796 168.794 17.796L167.396 15.7414C171.979 13.3295 171.608 6.96924 171.608 6.96924H174.138C174.138 6.96924 173.784 13.3295 178.367 15.7414L176.969 17.796C176.969 17.796 173.696 15.5092 172.882 12.7936Z" fill="#CFCFD0"/>
<path d="M196.806 29.4626C192.683 29.4626 189.356 27.0329 189.356 24.0314C189.356 21.0299 192.683 18.6001 196.806 18.6001C200.929 18.6001 204.256 21.0299 204.256 24.0314C204.256 27.0329 200.929 29.4626 196.806 29.4626ZM201.442 24.0314C201.442 22.352 199.372 20.9941 196.806 20.9941C194.24 20.9941 192.17 22.352 192.17 24.0314C192.17 25.7108 194.24 27.0686 196.806 27.0686C199.372 27.0686 201.442 25.7108 201.442 24.0314Z" fill="#CFCFD0"/>
<path d="M107.32 8.577C105.869 0.108514 80.6708 -2.53566 51.0486 2.66335C38.6087 4.843 27.3897 8.07675 18.6305 11.7036C19.9753 11.7393 20.9663 12.043 21.5856 12.6504C22.0634 13.1328 22.2934 13.7939 22.2934 14.5978V15.4375H19.3914V14.705C19.3914 14.0976 19.0198 13.7045 18.365 13.7045C17.8165 13.7045 17.4803 13.9547 17.3741 14.437C17.3564 14.58 17.3387 14.8122 17.3741 15.0266C17.6926 16.313 21.9926 17.0991 22.4704 19.4753C22.5412 19.779 22.612 20.4222 22.4704 21.3691C22.205 23.2807 20.5416 24.0132 18.4181 24.0132C15.463 24.0132 14.2597 22.6018 14.2597 20.6544V19.7433H17.3741V20.8867C17.3741 21.5299 17.8519 21.8872 18.4712 21.8872C19.0729 21.8872 19.4268 21.637 19.5506 21.1368C19.6037 20.9045 19.6214 20.5651 19.5329 20.315C18.949 18.85 14.9321 18.171 14.4366 15.8127C14.3305 15.2768 14.3128 14.8301 14.4013 14.2584C14.4543 13.9547 14.5428 13.6867 14.6667 13.4366C4.98727 18.0281 -0.692978 23.0663 0.0679272 27.4256C1.53665 35.8941 26.7173 38.5383 56.3395 33.3214C69.3634 31.0346 81.0601 27.6043 89.9609 23.7631C89.8371 23.7631 89.7132 23.781 89.5716 23.781C87.5366 23.781 85.7317 23.0127 85.5548 20.9224C85.5194 20.5472 85.5194 20.3864 85.5017 20.172V15.3482C85.5017 15.1517 85.5371 14.7765 85.5548 14.5978C85.8025 12.579 87.3774 11.7393 89.5716 11.7393C91.2704 11.7393 93.3408 12.2217 93.5885 14.5978C93.6239 14.8837 93.6239 15.2053 93.6239 15.3125V15.777H90.6864V15.0981C90.6864 15.0981 90.6864 14.8301 90.651 14.6693C90.598 14.437 90.4033 13.8653 89.5539 13.8653C88.7045 13.8653 88.5099 14.4192 88.4568 14.6693C88.4391 14.8122 88.4214 14.9909 88.4214 15.2053V20.44C88.4214 20.6187 88.4214 20.7616 88.4391 20.8688C88.4391 20.9403 88.5984 21.6728 89.5539 21.6728C90.5095 21.6728 90.6511 20.9581 90.6687 20.8688C90.6864 20.7259 90.7041 20.5472 90.6864 20.44V18.8142H89.5362V17.0634H93.6239V20.172C93.6239 20.3864 93.6239 20.5294 93.5885 20.9224C93.5354 21.4763 93.3585 21.9408 93.093 22.3338C102.542 17.8137 108.046 12.847 107.302 8.55913L107.32 8.577ZM30.5218 23.5844L29.0354 13.383H28.9823L27.4605 23.5844H24.3284L26.4342 12.0609H31.5482L33.6362 23.5844H30.5218ZM45.5807 23.5844L45.5099 13.5795H45.4568L43.6165 23.5844H40.679L38.8387 13.5795H38.7856L38.7148 23.5844H35.7951L36.0428 12.0609H40.7321L42.0947 20.6187H42.1655L43.528 12.0609H48.2173L48.465 23.5844H45.563H45.5807ZM59.2947 21.3512C58.9762 23.5844 56.8173 23.9775 55.2955 23.9775C52.7473 23.9775 51.1901 22.8698 51.1901 20.6544V19.7433H54.2692V20.8688C54.2692 21.4763 54.7115 21.8514 55.3663 21.8514C55.9502 21.8514 56.3041 21.6192 56.428 21.1189C56.4811 20.8867 56.5165 20.5651 56.4103 20.2971C55.8441 18.8678 51.8449 18.171 51.3671 15.8485C51.2609 15.3125 51.2432 14.8837 51.3494 14.312C51.6856 12.2038 53.6852 11.775 55.2955 11.775C56.7465 11.775 57.7906 12.0966 58.4099 12.7219C58.87 13.1864 59.1177 13.8475 59.1177 14.6514V15.4911H56.2511V14.7586C56.2511 14.1333 55.8617 13.776 55.2424 13.776C54.6938 13.776 54.3576 14.0261 54.2515 14.5085C54.2338 14.5978 54.2161 14.848 54.2515 15.0802C54.57 16.3487 58.8346 17.1348 59.3124 19.4753C59.3655 19.779 59.4539 20.4222 59.3124 21.3512H59.2947ZM69.9473 20.2971C69.9473 20.5115 69.9473 20.9403 69.912 21.0475C69.735 22.9413 68.3901 23.906 65.9305 23.906C63.4708 23.906 62.1083 22.9413 61.9313 21.0475C61.9313 20.9403 61.9136 20.4936 61.9136 20.2971V12.043H64.8511V20.5472C64.8511 20.7437 64.851 20.8688 64.8864 20.976C64.9218 21.1547 65.1165 21.78 65.9305 21.78C66.7445 21.78 66.9391 21.1547 66.9922 20.976C66.9922 20.8688 67.0099 20.7259 67.0099 20.5472V12.043H69.9473V20.2971ZM82.635 23.4594H78.5473L75.8045 14.3477H75.7515L75.893 23.4594H73.0441V12.0609H77.3087L79.8568 20.8152H79.9099L79.7683 12.0609H82.635V23.4594Z" fill="#CFCFD0"/>
</svg>
